<svg width="32" height="32" viewBox="0 0 32 32" fill="none" xmlns="http://www.w3.org/2000/svg">
  <path d="M16 4C12.6863 4 10 6.68629 10 10C10 10.3431 10.0343 10.6765 10.1 11H8C6.89543 11 6 11.8954 6 13V15C6 16.1046 6.89543 17 8 17H10V26C10 27.1046 10.8954 28 12 28H20C21.1046 28 22 27.1046 22 26V17H24C25.1046 17 26 16.1046 26 15V13C26 11.8954 25.1046 11 24 11H21.9C21.9657 10.6765 22 10.3431 22 10C22 6.68629 19.3137 4 16 4Z" fill="#22c55e"/>
  <circle cx="13" cy="8" r="2" fill="#16a34a"/>
  <circle cx="19" cy="8" r="2" fill="#16a34a"/>
  <circle cx="16" cy="6" r="2" fill="#16a34a"/>
</svg>